<svg id="eAemrPiklyb1" xmlns="http://www.w3.org/2000/svg" xmlns:xlink="http://www.w3.org/1999/xlink" viewBox="0 0 629 550" shape-rendering="geometricPrecision" text-rendering="geometricPrecision"><g clip-path="url(#eAemrPiklyb5)"><g><path d="M453.121,58.3113c29.278,38.7762,39.306,89.0587,71.235,131.0567c32.044,41.998,85.99,75.826,100.398,117.824c14.293,41.998-11.181,92.165-43.571,133.358-32.505,41.192-72.042,73.295-115.613,91.935s-91.292,23.703-129.445,7.364C297.856,523.625,269.039,486,219.129,471.041c-49.911-14.958-120.9155-7.249-158.0315-32.102-37.0008-24.969-40.2283-82.5-32.5054-135.659c7.6076-53.044,26.0504-101.831,59.0168-133.818C120.575,137.359,167.95,121.941,210.253,90.759c42.303-31.297,79.304-78.3577,122.183-88.3682c42.88-10.01046,91.407,17.2594,120.685,55.9205Z" fill="#fff4e0"/></g><clipPath id="eAemrPiklyb5"><rect width="604" height="550" rx="0" ry="0" transform="translate(25 0)" fill="#fff"/></clipPath></g><g clip-path="url(#eAemrPiklyb70)"><g><path id="eAemrPiklyb9" d="M0,307.327h163.775c0,0-10.676-17.562-40.026-11.25c0,0-5.428-23.983-34.3795-23.983-25.0611,0-32.118,23.983-32.118,23.983s-18.2032-13.113-32.8599,5.915c-.0362,0-20.77267-6.204-24.3916,5.335Z" transform="matrix(.8 0 0 0.8 16.377499 57.942099)" fill="#cde2e7"/><path id="eAemrPiklyb10" d="M436.242,157.295h163.793c0,0-10.694-17.563-40.043-11.233c0,0-5.519-24.001-34.38-24.001-25.061,0-32.118,24.001-32.118,24.001s-18.204-13.113-32.86,5.897c-.036,0-20.809-6.204-24.392,5.336Z" fill="#cde2e7"/><path id="eAemrPiklyb11" d="M174.993,182.761c-1.134-5.129-3.315-9.968-6.406-14.216l5.428-7.814-3.293-3.274-1.357-1.374-3.293-3.274-8.215,5.679c-4.391-2.804-9.323-4.652-14.476-5.426l-1.809-9.387h-11.291l-1.81,9.821c-5.128,1.089-9.964,3.26-14.186,6.367l-7.835-5.426-3.293,3.274-1.357,1.374-3.2936,3.274l5.6996,8.212c-2.815,4.423-4.6644,9.391-5.4282,14.578l-9.3911,1.7v11.214l9.8073,1.809c1.14,5.13,3.327,9.97,6.424,14.216l-5.429,7.814l3.293,3.274l1.358,1.374l3.293,3.274l8.215-5.697c4.387,2.811,9.321,4.661,14.475,5.426l1.701,9.405h11.219l1.81-9.876c5.121-1.103,9.949-3.279,14.168-6.384l7.835,5.426l3.293-3.274l1.357-1.375l3.293-3.273-5.7-8.23c2.805-4.389,4.655-9.319,5.429-14.47l9.391-1.808v-11.214l-9.626-1.719Zm-37.891,31.183c-4.476-.004-8.851-1.334-12.571-3.823-3.72-2.488-6.619-6.023-8.329-10.158-1.711-4.135-2.156-8.684-1.281-13.072.876-4.388,3.033-8.418,6.199-11.581c3.167-3.162,7.2-5.315,11.591-6.187c4.39-.872,8.941-.422,13.076,1.291s7.67,4.613,10.156,8.334c2.487,3.72,3.814,8.094,3.814,12.569c0,2.972-.586,5.916-1.725,8.663-1.139,2.746-2.808,5.241-4.912,7.343-2.104,2.101-4.601,3.767-7.35,4.903-2.748,1.136-5.694,1.72-8.668,1.718Z" fill="#cde2e7"/><path id="eAemrPiklyb12" d="M587.496,285.279c-.866-3.83-2.517-7.439-4.849-10.599l4.035-5.842-2.443-2.46-1.031-1.013-2.37-2.496-6.153,4.251c-3.288-2.116-6.988-3.51-10.856-4.088l-1.267-7.036h-8.396l-1.339,7.398c-3.834.809-7.45,2.431-10.603,4.757l-5.863-4.052-2.569,2.46-1.032,1.013-2.443,2.46l4.253,6.149c-2.113,3.29-3.507,6.988-4.09,10.853l-7.039,1.284v8.374l7.347,1.339c.847,3.841,2.486,7.463,4.813,10.635l-4.017,5.806l2.443,2.442l1.031,1.031l2.461,2.459l6.134-4.268c3.287,2.122,6.988,3.522,10.857,4.106l1.267,7.018h8.395l1.339-7.38c3.833-.823,7.448-2.451,10.604-4.775l5.881,4.07l2.442-2.46l1.032-1.031l2.443-2.442-4.253-6.15c2.117-3.287,3.511-6.986,4.09-10.852l7.021-1.284v-8.393l-7.275-1.284Zm-28.372,23.315c-3.35,0-6.624-.993-9.409-2.854-2.786-1.86-4.956-4.504-6.238-7.597-1.282-3.094-1.618-6.498-.964-9.782.653-3.284,2.266-6.3,4.635-8.668s5.387-3.98,8.672-4.633s6.691-.318,9.785.963c3.095,1.281,5.74,3.451,7.601,6.235c1.861,2.785,2.855,6.058,2.855,9.406c0,4.49-1.785,8.796-4.961,11.971s-7.484,4.959-11.976,4.959Z" transform="matrix(.984808 0.173648-.173648 0.984808 59.134748-92.657251)" fill="#cde2e7"/><path id="eAemrPiklyb13" d="M215.976,145.556c-.593-2.699-1.746-5.244-3.383-7.47l2.859-4.124-1.719-1.718-.724-.724-1.81-1.808-4.324,3.002c-2.324-1.496-4.939-2.483-7.672-2.894l-.905-4.938h-5.899l-.959,5.191c-2.682.642-5.198,1.844-7.383,3.527l-4.125-2.857-1.81,1.808-.723.724-1.81,1.718l3.004,4.323c-1.489,2.325-2.47,4.939-2.877,7.669l-4.958.904v5.915l5.175.94c.604,2.701,1.756,5.25,3.384,7.488l-2.715,3.925l1.81,1.809.724.724l1.809,1.808l4.325-3.002c2.323,1.496,4.938,2.483,7.672,2.894l.669,4.811h5.917l.941-5.191c2.751-.573,5.349-1.726,7.618-3.382l4.126,2.857l1.809-1.808.706-.706l1.809-1.808-3.003-4.323c1.497-2.323,2.484-4.937,2.895-7.669l4.94-.905v-5.769l-5.393-.941Zm-19.904,16.423c-2.36.004-4.668-.693-6.631-2.001-1.964-1.308-3.495-3.17-4.4-5.349-.905-2.178-1.143-4.576-.683-6.89s1.596-4.439,3.264-6.108c1.669-1.668,3.795-2.803,6.11-3.263c2.315-.459,4.714-.221,6.894.683c2.179.905,4.042,2.435,5.35,4.398c1.309,1.963,2.006,4.27,2.003,6.629c0,1.566-.31,3.116-.91,4.563-.601,1.446-1.481,2.76-2.591,3.865-1.109,1.106-2.426,1.982-3.875,2.578-1.448.596-3,.9-4.567.895h.036Z" fill="#cde2e7"/><path d="M365.821,420.517h-47.571v43.644h47.571v-43.644Z" fill="#e0f1f4"/><path d="M381.453,462.117h-78.205c-1.036,0-2.03.412-2.763,1.145-.733.732-1.145,1.726-1.145,2.762s.412,2.03,1.145,2.763c.733.732,1.727,1.144,2.763,1.144h78.205c1.036-.005,2.027-.418,2.759-1.15.732-.731,1.145-1.722,1.15-2.757-.005-1.035-.418-2.026-1.15-2.757-.732-.732-1.723-1.145-2.759-1.15Z" fill="#cde2e7"/><path d="M535.455,191.317h-386.501c-3.938,0-7.13,3.19-7.13,7.126v242.35c0,3.935,3.192,7.126,7.13,7.126h386.501c3.938,0,7.13-3.191,7.13-7.126v-242.35c0-3.936-3.192-7.126-7.13-7.126Z" transform="translate(.1465-.000504)" fill="#a2dacd"/><path d="M533.809,438.713v-238.19c0-.929-.754-1.682-1.683-1.682h-379.843c-.93,0-1.683.753-1.683,1.682v238.19c0,.929.753,1.682,1.683,1.682h379.843c.929,0,1.683-.753,1.683-1.682Z" fill="#dff9f3"/><path d="M263.656,233.025h-82.91v82.876h82.91v-82.876Z" fill="#fff"/><path d="M497.351,233.152h-219.742v82.875h219.742v-82.875Z" fill="#fff"/><path d="M497.351,324.655h-219.742v11.648h219.742v-11.648Z" fill="#fff"/><path d="M497.222,344.388h-219.742v11.648h219.742v-11.648Z" fill="#fff"/><path d="M263.656,324.528h-82.91v11.648h82.91v-11.648Z" fill="#fff"/><path d="M263.656,344.388h-82.91v11.648h82.91v-11.648Z" fill="#fff"/><path d="M320.059,212.659h-40.985v10.093h40.985v-10.093Z" fill="#e0f1f4"/><g id="eAemrPiklyb25" transform="matrix(.984808 0.173648-.173648 0.984808 49.174304-50.180749)"><path d="M235.746,333.469l-7.39-45.064l147.881-24.233l7.39,45.064-147.881,24.233Z" fill="#aee6b9" stroke="#73c984"/><path d="M230.362,287.558c-1.809.85,69.266-28.143,69.266-28.143l77.029,4.178" fill="none" stroke="#cde2e7" stroke-miterlimit="10"/></g><path d="M41.2148,487.5v-17.069h577.2872v17.069h-577.2872Z" fill="#aee6b9" stroke="#73c984"/><g id="eAemrPiklyb29"><path d="M45.3643,329.828c-1.9904-.579-28.9514,118.272,73.6267,133.754c0,0,30.182-103.205-73.6267-133.754Z" fill="#cde2e7"/><path d="M67.4375,369.059l50.1045,93.058" fill="none" stroke="#fff" stroke-width="2" stroke-linecap="round" stroke-miterlimit="10"/><path d="M64.9219,398.089L88.644,408.453" fill="none" stroke="#fff" stroke-width="2" stroke-linecap="round" stroke-miterlimit="10"/><path d="M108.061,401.471l-6.514,30.947" fill="none" stroke="#fff" stroke-width="2" stroke-linecap="round" stroke-miterlimit="10"/></g><path d="M497.333,108.821h-43.681v82.496h43.681v-82.496Z" fill="#aee6b9"/><path d="M504.39,92h-76.269v76.237h76.269v-76.237Z" fill="#aee6b9"/><path d="M299.374,242.051c7.206,0,13.047-5.839,13.047-13.041s-5.841-13.041-13.047-13.041c-7.205,0-13.046,5.839-13.046,13.041s5.841,13.041,13.046,13.041Z" fill="#aee6b9"/><path d="M280.249,116.526h-2.769v106.226h2.769v-106.226Z" fill="#aee6b9"/><path d="M300.425,116.526h-2.769v106.226h2.769v-106.226Z" fill="#aee6b9"/><path d="M321.761,116.526h-2.769v106.226h2.769v-106.226Z" fill="#aee6b9"/><path d="M299.575,247.061c-.351,0-.687-.139-.934-.387-.248-.247-.387-.583-.387-.933v-14.886c.038-.326.195-.626.44-.844.245-.219.562-.339.89-.339s.645.12.89.339c.245.218.402.518.44.844v14.886c-.005.352-.148.687-.399.935-.25.247-.588.385-.94.385Z" fill="#aee6b9"/><path d="M321.758,221.667h-44.278v11.358h44.278v-11.358Z" fill="#aee6b9"/><path d="M299.356,263.593c-1.759-.003-3.485-.487-4.99-1.4-1.504-.913-2.73-2.219-3.544-3.779-.815-1.559-1.187-3.312-1.076-5.068.11-1.755.699-3.447,1.703-4.892.911-1.288,2.117-2.338,3.519-3.062c1.401-.724,2.956-1.1,4.533-1.098.176.002.35.039.511.109.162.069.308.17.431.296.122.126.219.274.284.438.065.163.098.338.095.513-.041.341-.198.656-.446.894-.247.237-.569.382-.911.409-1.475.009-2.908.484-4.097,1.357-1.189.872-2.072,2.097-2.523,3.5s-.448,2.913.01,4.315c.458,1.401,1.346,2.622,2.539,3.489c1.039.728,2.259,1.159,3.526,1.245c1.266.086,2.533-.175,3.662-.756s2.077-1.459,2.743-2.54s1.023-2.323,1.034-3.593c.005-.351.148-.687.399-.934.25-.247.588-.386.94-.386.352.01.686.157.93.411s.378.594.373.946c-.003,1.942-.603,3.836-1.719,5.426-.884,1.284-2.068,2.334-3.449,3.059-1.38.724-2.917,1.102-4.477,1.101Z" fill="#aee6b9"/><path d="M497.478,92h-231.72v39.267h231.72v-39.267Z" fill="#aee6b9"/><path d="M301.748,98.7827L286.91,124.484L272.055,98.7827h29.693Z" fill="#fff"/><path d="M324.455,124.484L309.599,98.7827L294.762,124.484h29.693Z" fill="#fff"/><path d="M278.876,124.503h-13.118v-22.718l13.118,22.718Z" fill="#fff"/><path d="M348.686,98.7827L333.83,124.484L318.992,98.7827h29.694Z" fill="#fff"/><path d="M371.374,124.484L356.537,98.7827L341.699,124.484h29.675Z" fill="#fff"/><path d="M395.623,98.7827L380.767,124.484L365.93,98.7827h29.693Z" fill="#fff"/><path d="M418.312,124.484L403.474,98.7827L388.637,124.484h29.675Z" fill="#fff"/><path d="M442.542,98.7827L427.705,124.484L412.867,98.7827h29.675Z" fill="#fff"/><path d="M465.248,124.484L450.41,98.7827L435.555,124.484h29.693Z" fill="#fff"/><path d="M489.48,98.7827L474.642,124.484L459.805,98.7827h29.675Z" fill="#fff"/><path d="M497.494,99.0178v25.4852h-14.982l14.837-25.7203.145.2351Z" fill="#fff"/><path d="M265.755,92h-7.22v39.267h7.22v-39.267Z" fill="#aee6b9"/><path d="M504.388,92h-7.22v39.267h7.22v-39.267Z" fill="#aee6b9"/><path d="M609.788,367.956c1.412-.416,20.628,84.231-52.474,95.265c0,0-21.479-73.507,52.474-95.265Z" fill="#cde2e7"/><path d="M556.809,466.024l39.79-74.573" fill="none" stroke="#fff" stroke-width="2" stroke-linecap="round" stroke-miterlimit="10"/><path d="M576.711,402.556l1.954,22.501" fill="none" stroke="#fff" stroke-width="2" stroke-linecap="round" stroke-miterlimit="10"/><path d="M570.834,439.762c-.199.361,18.51-7.706,18.51-7.706l-18.51,7.706Z" fill="#fff"/><path d="M570.834,439.762c-.199.361,18.51-7.706,18.51-7.706" fill="none" stroke="#fff" stroke-width="2" stroke-linecap="round" stroke-miterlimit="10"/><path d="M459.786,233.025h-6.134v243.453h6.134v-243.453Z" fill="#aee6b9"/><path d="M497.333,233.025h-6.134v243.453h6.134v-243.453Z" fill="#aee6b9"/><path d="M493.205,262.001h-36.478v3.129h36.478v-3.129Z" fill="#aee6b9"/><path d="M493.205,293.328h-36.478v3.129h36.478v-3.129Z" fill="#aee6b9"/><path d="M493.205,324.655h-36.478v3.129h36.478v-3.129Z" fill="#aee6b9"/><path d="M493.205,355.982h-36.478v3.129h36.478v-3.129Z" fill="#aee6b9"/><path d="M493.205,387.309h-36.478v3.129h36.478v-3.129Z" fill="#aee6b9"/><path d="M493.205,418.654h-36.478v3.129h36.478v-3.129Z" fill="#aee6b9"/></g><clipPath id="eAemrPiklyb70"><rect width="619" height="396" rx="0" ry="0" transform="translate(0 92)" fill="#fff"/></clipPath></g>
<script><![CDATA[
!function(t,n){"object"==typeof exports&&"undefined"!=typeof module?module.exports=n():"function"==typeof define&&define.amd?define(n):((t="undefined"!=typeof globalThis?globalThis:t||self).__SVGATOR_PLAYER__=t.__SVGATOR_PLAYER__||{},t.__SVGATOR_PLAYER__["5c7f360c"]=n())}(this,(function(){"use strict";function t(t,n){var e=Object.keys(t);if(Object.getOwnPropertySymbols){var r=Object.getOwnPropertySymbols(t);n&&(r=r.filter((function(n){return Object.getOwnPropertyDescriptor(t,n).enumerable}))),e.push.apply(e,r)}return e}function n(n){for(var e=1;e<arguments.length;e++){var r=null!=arguments[e]?arguments[e]:{};e%2?t(Object(r),!0).forEach((function(t){o(n,t,r[t])})):Object.getOwnPropertyDescriptors?Object.defineProperties(n,Object.getOwnPropertyDescriptors(r)):t(Object(r)).forEach((function(t){Object.defineProperty(n,t,Object.getOwnPropertyDescriptor(r,t))}))}return n}function e(t){return(e="function"==typeof Symbol&&"symbol"==typeof Symbol.iterator?function(t){return typeof t}:function(t){return t&&"function"==typeof Symbol&&t.constructor===Symbol&&t!==Symbol.prototype?"symbol":typeof t})(t)}function r(t,n){if(!(t instanceof n))throw new TypeError("Cannot call a class as a function")}function i(t,n){for(var e=0;e<n.length;e++){var r=n[e];r.enumerable=r.enumerable||!1,r.configurable=!0,"value"in r&&(r.writable=!0),Object.defineProperty(t,r.key,r)}}function u(t,n,e){return n&&i(t.prototype,n),e&&i(t,e),t}function o(t,n,e){return n in t?Object.defineProperty(t,n,{value:e,enumerable:!0,configurable:!0,writable:!0}):t[n]=e,t}function a(t){return(a=Object.setPrototypeOf?Object.getPrototypeOf:function(t){return t.__proto__||Object.getPrototypeOf(t)})(t)}function l(t,n){return(l=Object.setPrototypeOf||function(t,n){return t.__proto__=n,t})(t,n)}function s(){if("undefined"==typeof Reflect||!Reflect.construct)return!1;if(Reflect.construct.sham)return!1;if("function"==typeof Proxy)return!0;try{return Boolean.prototype.valueOf.call(Reflect.construct(Boolean,[],(function(){}))),!0}catch(t){return!1}}function f(t,n,e){return(f=s()?Reflect.construct:function(t,n,e){var r=[null];r.push.apply(r,n);var i=new(Function.bind.apply(t,r));return e&&l(i,e.prototype),i}).apply(null,arguments)}function c(t,n){if(n&&("object"==typeof n||"function"==typeof n))return n;if(void 0!==n)throw new TypeError("Derived constructors may only return object or undefined");return function(t){if(void 0===t)throw new ReferenceError("this hasn't been initialised - super() hasn't been called");return t}(t)}function h(t,n,e){return(h="undefined"!=typeof Reflect&&Reflect.get?Reflect.get:function(t,n,e){var r=function(t,n){for(;!Object.prototype.hasOwnProperty.call(t,n)&&null!==(t=a(t)););return t}(t,n);if(r){var i=Object.getOwnPropertyDescriptor(r,n);return i.get?i.get.call(e):i.value}})(t,n,e||t)}function v(t){return function(t){if(Array.isArray(t))return y(t)}(t)||function(t){if("undefined"!=typeof Symbol&&null!=t[Symbol.iterator]||null!=t["@@iterator"])return Array.from(t)}(t)||function(t,n){if(!t)return;if("string"==typeof t)return y(t,n);var e=Object.prototype.toString.call(t).slice(8,-1);"Object"===e&&t.constructor&&(e=t.constructor.name);if("Map"===e||"Set"===e)return Array.from(t);if("Arguments"===e||/^(?:Ui|I)nt(?:8|16|32)(?:Clamped)?Array$/.test(e))return y(t,n)}(t)||function(){throw new TypeError("Invalid attempt to spread non-iterable instance.\nIn order to be iterable, non-array objects must have a [Symbol.iterator]() method.")}()}function y(t,n){(null==n||n>t.length)&&(n=t.length);for(var e=0,r=new Array(n);e<n;e++)r[e]=t[e];return r}Number.isInteger||(Number.isInteger=function(t){return"number"==typeof t&&isFinite(t)&&Math.floor(t)===t}),Number.EPSILON||(Number.EPSILON=2220446049250313e-31);var g=d(Math.pow(10,-6));function d(t){var n=arguments.length>1&&void 0!==arguments[1]?arguments[1]:6;if(Number.isInteger(t))return t;var e=Math.pow(10,n);return Math.round((+t+Number.EPSILON)*e)/e}function p(t,n){var e=arguments.length>2&&void 0!==arguments[2]?arguments[2]:g;return Math.abs(t-n)<e}var m=Math.PI/180;function b(t){return t}function w(t,n,e){var r=1-e;return 3*e*r*(t*r+n*e)+e*e*e}function x(){var t=arguments.length>0&&void 0!==arguments[0]?arguments[0]:0,n=arguments.length>1&&void 0!==arguments[1]?arguments[1]:0,e=arguments.length>2&&void 0!==arguments[2]?arguments[2]:1,r=arguments.length>3&&void 0!==arguments[3]?arguments[3]:1;return t<0||t>1||e<0||e>1?null:p(t,n)&&p(e,r)?b:function(i){if(i<=0)return t>0?i*n/t:0===n&&e>0?i*r/e:0;if(i>=1)return e<1?1+(i-1)*(r-1)/(e-1):1===e&&t<1?1+(i-1)*(n-1)/(t-1):1;for(var u,o=0,a=1;o<a;){var l=w(t,e,u=(o+a)/2);if(p(i,l))break;l<i?o=u:a=u}return w(n,r,u)}}function A(){return 1}function k(t){return 1===t?1:0}function _(){var t=arguments.length>0&&void 0!==arguments[0]?arguments[0]:1,n=arguments.length>1&&void 0!==arguments[1]?arguments[1]:0;if(1===t){if(0===n)return k;if(1===n)return A}var e=1/t;return function(t){return t>=1?1:(t+=n*e)-t%e}}var S=Math.sin,O=Math.cos,j=Math.acos,M=Math.asin,P=Math.tan,E=Math.atan2,I=Math.PI/180,R=180/Math.PI,F=Math.sqrt,N=function(){function t(){var n=arguments.length>0&&void 0!==arguments[0]?arguments[0]:1,e=arguments.length>1&&void 0!==arguments[1]?arguments[1]:0,i=arguments.length>2&&void 0!==arguments[2]?arguments[2]:0,u=arguments.length>3&&void 0!==arguments[3]?arguments[3]:1,o=arguments.length>4&&void 0!==arguments[4]?arguments[4]:0,a=arguments.length>5&&void 0!==arguments[5]?arguments[5]:0;r(this,t),this.m=[n,e,i,u,o,a],this.i=null,this.w=null,this.s=null}return u(t,[{key:"determinant",get:function(){var t=this.m;return t[0]*t[3]-t[1]*t[2]}},{key:"isIdentity",get:function(){if(null===this.i){var t=this.m;this.i=1===t[0]&&0===t[1]&&0===t[2]&&1===t[3]&&0===t[4]&&0===t[5]}return this.i}},{key:"point",value:function(t,n){var e=this.m;return{x:e[0]*t+e[2]*n+e[4],y:e[1]*t+e[3]*n+e[5]}}},{key:"translateSelf",value:function(){var t=arguments.length>0&&void 0!==arguments[0]?arguments[0]:0,n=arguments.length>1&&void 0!==arguments[1]?arguments[1]:0;if(!t&&!n)return this;var e=this.m;return e[4]+=e[0]*t+e[2]*n,e[5]+=e[1]*t+e[3]*n,this.w=this.s=this.i=null,this}},{key:"rotateSelf",value:function(){var t=arguments.length>0&&void 0!==arguments[0]?arguments[0]:0;if(t%=360){var n=S(t*=I),e=O(t),r=this.m,i=r[0],u=r[1];r[0]=i*e+r[2]*n,r[1]=u*e+r[3]*n,r[2]=r[2]*e-i*n,r[3]=r[3]*e-u*n,this.w=this.s=this.i=null}return this}},{key:"scaleSelf",value:function(){var t=arguments.length>0&&void 0!==arguments[0]?arguments[0]:1,n=arguments.length>1&&void 0!==arguments[1]?arguments[1]:1;if(1!==t||1!==n){var e=this.m;e[0]*=t,e[1]*=t,e[2]*=n,e[3]*=n,this.w=this.s=this.i=null}return this}},{key:"skewSelf",value:function(t,n){if(n%=360,(t%=360)||n){var e=this.m,r=e[0],i=e[1],u=e[2],o=e[3];t&&(t=P(t*I),e[2]+=r*t,e[3]+=i*t),n&&(n=P(n*I),e[0]+=u*n,e[1]+=o*n),this.w=this.s=this.i=null}return this}},{key:"resetSelf",value:function(){var t=arguments.length>0&&void 0!==arguments[0]?arguments[0]:1,n=arguments.length>1&&void 0!==arguments[1]?arguments[1]:0,e=arguments.length>2&&void 0!==arguments[2]?arguments[2]:0,r=arguments.length>3&&void 0!==arguments[3]?arguments[3]:1,i=arguments.length>4&&void 0!==arguments[4]?arguments[4]:0,u=arguments.length>5&&void 0!==arguments[5]?arguments[5]:0,o=this.m;return o[0]=t,o[1]=n,o[2]=e,o[3]=r,o[4]=i,o[5]=u,this.w=this.s=this.i=null,this}},{key:"recomposeSelf",value:function(){var t=arguments.length>0&&void 0!==arguments[0]?arguments[0]:null,n=arguments.length>1&&void 0!==arguments[1]?arguments[1]:null,e=arguments.length>2&&void 0!==arguments[2]?arguments[2]:null,r=arguments.length>3&&void 0!==arguments[3]?arguments[3]:null,i=arguments.length>4&&void 0!==arguments[4]?arguments[4]:null;return this.isIdentity||this.resetSelf(),t&&(t.x||t.y)&&this.translateSelf(t.x,t.y),n&&this.rotateSelf(n),e&&(e.x&&this.skewSelf(e.x,0),e.y&&this.skewSelf(0,e.y)),!r||1===r.x&&1===r.y||this.scaleSelf(r.x,r.y),i&&(i.x||i.y)&&this.translateSelf(i.x,i.y),this}},{key:"decompose",value:function(){var t=arguments.length>0&&void 0!==arguments[0]?arguments[0]:0,n=arguments.length>1&&void 0!==arguments[1]?arguments[1]:0,e=this.m,r=e[0]*e[0]+e[1]*e[1],i=[[e[0],e[1]],[e[2],e[3]]],u=F(r);if(0===u)return{origin:{x:d(e[4]),y:d(e[5])},translate:{x:d(t),y:d(n)},scale:{x:0,y:0},skew:{x:0,y:0},rotate:0};i[0][0]/=u,i[0][1]/=u;var o=e[0]*e[3]-e[1]*e[2]<0;o&&(u=-u);var a=i[0][0]*i[1][0]+i[0][1]*i[1][1];i[1][0]-=i[0][0]*a,i[1][1]-=i[0][1]*a;var l=F(i[1][0]*i[1][0]+i[1][1]*i[1][1]);if(0===l)return{origin:{x:d(e[4]),y:d(e[5])},translate:{x:d(t),y:d(n)},scale:{x:d(u),y:0},skew:{x:0,y:0},rotate:0};i[1][0]/=l,i[1][1]/=l,a/=l;var s=0;return i[1][1]<0?(s=j(i[1][1])*R,i[0][1]<0&&(s=360-s)):s=M(i[0][1])*R,o&&(s=-s),a=E(a,F(i[0][0]*i[0][0]+i[0][1]*i[0][1]))*R,o&&(a=-a),{origin:{x:d(e[4]),y:d(e[5])},translate:{x:d(t),y:d(n)},scale:{x:d(u),y:d(l)},skew:{x:d(a),y:0},rotate:d(s)}}},{key:"clone",value:function(){var t=this.m;return new this.constructor(t[0],t[1],t[2],t[3],t[4],t[5])}},{key:"toString",value:function(){var t=arguments.length>0&&void 0!==arguments[0]?arguments[0]:" ";if(null===this.s){var n=this.m.map((function(t){return d(t)}));1===n[0]&&0===n[1]&&0===n[2]&&1===n[3]?this.s="translate("+n[4]+t+n[5]+")":this.s="matrix("+n.join(t)+")"}return this.s}}],[{key:"create",value:function(t){return t?Array.isArray(t)?f(this,v(t)):t instanceof this?t.clone():(new this).recomposeSelf(t.origin,t.rotate,t.skew,t.scale,t.translate):new this}}]),t}();function T(t,n,e){return t>=.5?e:n}function q(t,n,e){return 0===t||n===e?n:t*(e-n)+n}function B(t,n,e){var r=q(t,n,e);return r<=0?0:r}function L(t,n,e){var r=q(t,n,e);return r<=0?0:r>=1?1:r}function C(t,n,e){return 0===t?n:1===t?e:{x:q(t,n.x,e.x),y:q(t,n.y,e.y)}}function D(t,n,e){var r=function(t,n,e){return Math.round(q(t,n,e))}(t,n,e);return r<=0?0:r>=255?255:r}function z(t,n,e){return 0===t?n:1===t?e:{r:D(t,n.r,e.r),g:D(t,n.g,e.g),b:D(t,n.b,e.b),a:q(t,null==n.a?1:n.a,null==e.a?1:e.a)}}function V(t,n){for(var e=[],r=0;r<t;r++)e.push(n);return e}function G(t,n){if(--n<=0)return t;var e=(t=Object.assign([],t)).length;do{for(var r=0;r<e;r++)t.push(t[r])}while(--n>0);return t}var Y,$=function(){function t(n){r(this,t),this.list=n,this.length=n.length}return u(t,[{key:"setAttribute",value:function(t,n){for(var e=this.list,r=0;r<this.length;r++)e[r].setAttribute(t,n)}},{key:"removeAttribute",value:function(t){for(var n=this.list,e=0;e<this.length;e++)n[e].removeAttribute(t)}},{key:"style",value:function(t,n){for(var e=this.list,r=0;r<this.length;r++)e[r].style[t]=n}}]),t}(),U=/-./g,Q=function(t,n){return n.toUpperCase()};function H(t){return"function"==typeof t?t:T}function J(t){return t?"function"==typeof t?t:Array.isArray(t)?function(t){var n=arguments.length>1&&void 0!==arguments[1]?arguments[1]:b;if(!Array.isArray(t))return n;switch(t.length){case 1:return _(t[0])||n;case 2:return _(t[0],t[1])||n;case 4:return x(t[0],t[1],t[2],t[3])||n}return n}(t,null):function(t,n){var e=arguments.length>2&&void 0!==arguments[2]?arguments[2]:b;switch(t){case"linear":return b;case"steps":return _(n.steps||1,n.jump||0)||e;case"bezier":case"cubic-bezier":return x(n.x1||0,n.y1||0,n.x2||0,n.y2||0)||e}return e}(t.type,t.value,null):null}function Z(t,n,e){var r=arguments.length>3&&void 0!==arguments[3]&&arguments[3],i=n.length-1;if(t<=n[0].t)return r?[0,0,n[0].v]:n[0].v;if(t>=n[i].t)return r?[i,1,n[i].v]:n[i].v;var u,o=n[0],a=null;for(u=1;u<=i;u++){if(!(t>n[u].t)){a=n[u];break}o=n[u]}return null==a?r?[i,1,n[i].v]:n[i].v:o.t===a.t?r?[u,1,a.v]:a.v:(t=(t-o.t)/(a.t-o.t),o.e&&(t=o.e(t)),r?[u,t,e(t,o.v,a.v)]:e(t,o.v,a.v))}function K(t,n){var e=arguments.length>2&&void 0!==arguments[2]?arguments[2]:null;return t&&t.length?"function"!=typeof n?null:("function"!=typeof e&&(e=null),function(r){var i=Z(r,t,n);return null!=i&&e&&(i=e(i)),i}):null}function W(t,n){return t.t-n.t}function X(t,n,r,i,u){var o,a="@"===r[0],l="#"===r[0],s=Y[r],f=T;switch(a?(o=r.substr(1),r=o.replace(U,Q)):l&&(r=r.substr(1)),e(s)){case"function":if(f=s(i,u,Z,J,r,a,n,t),l)return f;break;case"string":f=K(i,H(s));break;case"object":if((f=K(i,H(s.i),s.f))&&"function"==typeof s.u)return s.u(n,f,r,a,t)}return f?function(t,n,e){if(arguments.length>3&&void 0!==arguments[3]&&arguments[3])return t instanceof $?function(r){return t.style(n,e(r))}:function(r){return t.style[n]=e(r)};if(Array.isArray(n)){var r=n.length;return function(i){var u=e(i);if(null==u)for(var o=0;o<r;o++)t[o].removeAttribute(n);else for(var a=0;a<r;a++)t[a].setAttribute(n,u)}}return function(r){var i=e(r);null==i?t.removeAttribute(n):t.setAttribute(n,i)}}(n,r,f,a):null}function tt(t,n,r,i){if(!i||"object"!==e(i))return null;var u=null,o=null;return Array.isArray(i)?o=function(t){if(!t||!t.length)return null;for(var n=0;n<t.length;n++)t[n].e&&(t[n].e=J(t[n].e));return t.sort(W)}(i):(o=i.keys,u=i.data||null),o?X(t,n,r,o,u):null}function nt(t,n,e){if(!e)return null;var r=[];for(var i in e)if(e.hasOwnProperty(i)){var u=tt(t,n,i,e[i]);u&&r.push(u)}return r.length?r:null}function et(t,n){if(!n.settings.duration||n.settings.duration<0)return null;var e,r,i,u,o,a=function(t,n){if(!n)return null;var e=[];if(Array.isArray(n))for(var r=n.length,i=0;i<r;i++){var u=n[i];if(2===u.length){var o=null;if("string"==typeof u[0])o=t.getElementById(u[0]);else if(Array.isArray(u[0])){o=[];for(var a=0;a<u[0].length;a++)if("string"==typeof u[0][a]){var l=t.getElementById(u[0][a]);l&&o.push(l)}o=o.length?1===o.length?o[0]:new $(o):null}if(o){var s=nt(t,o,u[1]);s&&(e=e.concat(s))}}}else for(var f in n)if(n.hasOwnProperty(f)){var c=t.getElementById(f);if(c){var h=nt(t,c,n[f]);h&&(e=e.concat(h))}}return e.length?e:null}(t,n.elements);return a?(e=a,r=n.settings,i=r.duration,u=e.length,o=null,function(t,n){var a=r.iterations||1/0,l=(r.alternate&&a%2==0)^r.direction>0?i:0,s=t%i,f=1+(t-s)/i;n*=r.direction,r.alternate&&f%2==0&&(n=-n);var c=!1;if(f>a)s=l,c=!0,-1===r.fill&&(s=r.direction>0?0:i);else if(n<0&&(s=i-s),s===o)return!1;o=s;for(var h=0;h<u;h++)e[h](s);return c}):null}function rt(t,n){if(Y=n,!t||!t.root||!Array.isArray(t.animations))return null;var e=function(t){for(var n=document.getElementsByTagName("svg"),e=0;e<n.length;e++)if(n[e].id===t.root&&!n[e].svgatorAnimation)return n[e].svgatorAnimation=!0,n[e];return null}(t);if(!e)return null;var r=t.animations.map((function(t){return et(e,t)})).filter((function(t){return!!t}));return r.length?{svg:e,animations:r,animationSettings:t.animationSettings,options:t.options||void 0}:null}function it(t){return+("0x"+(t.replace(/[^0-9a-fA-F]+/g,"")||27))}function ut(t,n,e){return!t||!e||n>t.length?t:t.substring(0,n)+ut(t.substring(n+1),e,e)}function ot(t){var n=arguments.length>1&&void 0!==arguments[1]?arguments[1]:27;return!t||t%n?t%n:ot(t/n,n)}function at(t,n,e){if(t&&t.length){var r=it(e),i=it(n),u=ot(r)+5,o=ut(t,ot(r,5),u);return o=o.replace(/\x7c$/g,"==").replace(/\x2f$/g,"="),o=function(t,n,e){var r=+("0x"+t.substring(0,4));t=t.substring(4);for(var i=n%r+e%27,u=[],o=0;o<t.length;o+=2)if("|"!==t[o]){var a=+("0x"+t[o]+t[o+1])-i;u.push(a)}else{var l=+("0x"+t.substring(o+1,o+1+4))-i;o+=3,u.push(l)}return String.fromCharCode.apply(String,u)}(o=(o=atob(o)).replace(/[\x41-\x5A]/g,""),i,r),o=JSON.parse(o)}}var lt=[{key:"alternate",def:!1},{key:"fill",def:1},{key:"iterations",def:0},{key:"direction",def:1},{key:"speed",def:1},{key:"fps",def:100}],st=function(){function t(n,e){var i=this,u=arguments.length>2&&void 0!==arguments[2]?arguments[2]:null;r(this,t),this._id=0,this._running=!1,this._rollingBack=!1,this._animations=n,this._settings=e,(!u||u<"2022-05-02")&&delete this._settings.speed,lt.forEach((function(t){i._settings[t.key]=i._settings[t.key]||t.def})),this.duration=e.duration,this.offset=e.offset||0,this.rollbackStartOffset=0}return u(t,[{key:"alternate",get:function(){return this._settings.alternate}},{key:"fill",get:function(){return this._settings.fill}},{key:"iterations",get:function(){return this._settings.iterations}},{key:"direction",get:function(){return this._settings.direction}},{key:"speed",get:function(){return this._settings.speed}},{key:"fps",get:function(){return this._settings.fps}},{key:"maxFiniteDuration",get:function(){return this.iterations>0?this.iterations*this.duration:this.duration}},{key:"_apply",value:function(t){for(var n=arguments.length>1&&void 0!==arguments[1]?arguments[1]:{},e=this._animations,r=e.length,i=0,u=0;u<r;u++)n[u]?i++:(n[u]=e[u](t,1),n[u]&&i++);return i}},{key:"_rollback",value:function(t){var n=this,e=1/0,r=null;this.rollbackStartOffset=t,this._rollingBack=!0,this._running=!0;this._id=window.requestAnimationFrame((function i(u){if(n._rollingBack){null==r&&(r=u);var o=Math.round(t-(u-r)*n.speed);if(o>n.duration&&e!==1/0){var a=!!n.alternate&&o/n.duration%2>1,l=o%n.duration;o=(l+=a?n.duration:0)||n.duration}var s=(n.fps?1e3/n.fps:0)*n.speed,f=Math.max(0,o);f<=e-s&&(n.offset=f,e=f,n._apply(f));var c=n.iterations>0&&-1===n.fill&&o>=n.maxFiniteDuration;(o<=0||n.offset<o||c)&&n.stop(),n._id=window.requestAnimationFrame(i)}}))}},{key:"_start",value:function(){var t=this,n=arguments.length>0&&void 0!==arguments[0]?arguments[0]:0,e=-1/0,r=null,i={};this._running=!0;var u=function u(o){null==r&&(r=o);var a=Math.round((o-r)*t.speed+n),l=(t.fps?1e3/t.fps:0)*t.speed;if(a>=e+l&&!t._rollingBack&&(t.offset=a,e=a,t._apply(a,i)===t._animations.length))return void t.pause(!0);t._id=window.requestAnimationFrame(u)};this._id=window.requestAnimationFrame(u)}},{key:"_pause",value:function(){this._id&&window.cancelAnimationFrame(this._id),this._running=!1}},{key:"play",value:function(){if(!this._running)return this._rollingBack?this._rollback(this.offset):this._start(this.offset)}},{key:"stop",value:function(){this._pause(),this.offset=0,this.rollbackStartOffset=0,this._rollingBack=!1,this._apply(0)}},{key:"reachedToEnd",value:function(){return this.iterations>0&&this.offset>=this.iterations*this.duration}},{key:"restart",value:function(){var t=arguments.length>0&&void 0!==arguments[0]&&arguments[0];this.stop(t),this.play(t)}},{key:"pause",value:function(){this._pause()}},{key:"reverse",value:function(){this.direction=-this.direction}}],[{key:"build",value:function(t,n){delete t.animationSettings,t.options=at(t.options,t.root,"5c7f360c"),t.animations.map((function(n){n.settings=at(n.s,t.root,"5c7f360c"),delete n.s,t.animationSettings||(t.animationSettings=n.settings)}));var e=t.version;if(!(t=rt(t,n)))return null;var r=t.options||{},i=new this(t.animations,t.animationSettings,e);return{el:t.svg,options:r,player:i}}},{key:"push",value:function(t){return this.build(t)}},{key:"init",value:function(){var t=this,n=window.__SVGATOR_PLAYER__&&window.__SVGATOR_PLAYER__["5c7f360c"];Array.isArray(n)&&n.splice(0).forEach((function(n){return t.build(n)}))}}]),t}();function ft(t){return d(t)+""}function ct(t){var n=arguments.length>1&&void 0!==arguments[1]?arguments[1]:" ";return t&&t.length?t.map(ft).join(n):""}function ht(t){if(!t)return"transparent";if(null==t.a||t.a>=1){var n=function(t){return 1===(t=parseInt(t).toString(16)).length?"0"+t:t},e=function(t){return t.charAt(0)===t.charAt(1)},r=n(t.r),i=n(t.g),u=n(t.b);return e(r)&&e(i)&&e(u)&&(r=r.charAt(0),i=i.charAt(0),u=u.charAt(0)),"#"+r+i+u}return"rgba("+t.r+","+t.g+","+t.b+","+t.a+")"}function vt(t){return t?"url(#"+t+")":"none"}!function(){for(var t=0,n=["ms","moz","webkit","o"],e=0;e<n.length&&!window.requestAnimationFrame;++e)window.requestAnimationFrame=window[n[e]+"RequestAnimationFrame"],window.cancelAnimationFrame=window[n[e]+"CancelAnimationFrame"]||window[n[e]+"CancelRequestAnimationFrame"];window.requestAnimationFrame||(window.requestAnimationFrame=function(n){var e=Date.now(),r=Math.max(0,16-(e-t)),i=window.setTimeout((function(){n(e+r)}),r);return t=e+r,i},window.cancelAnimationFrame=window.clearTimeout)}();var yt={f:null,i:function(t,n,e){return 0===t?n:1===t?e:{x:B(t,n.x,e.x),y:B(t,n.y,e.y)}},u:function(t,n){return function(e){var r=n(e);t.setAttribute("rx",ft(r.x)),t.setAttribute("ry",ft(r.y))}}},gt={f:null,i:function(t,n,e){return 0===t?n:1===t?e:{width:B(t,n.width,e.width),height:B(t,n.height,e.height)}},u:function(t,n){return function(e){var r=n(e);t.setAttribute("width",ft(r.width)),t.setAttribute("height",ft(r.height))}}};Object.freeze({M:2,L:2,Z:0,H:1,V:1,C:6,Q:4,T:2,S:4,A:7});var dt={},pt=null;function mt(t){var n=function(){if(pt)return pt;if("object"!==("undefined"==typeof document?"undefined":e(document))||!document.createElementNS)return{};var t=document.createElementNS("http://www.w3.org/2000/svg","svg");return t&&t.style?(t.style.position="absolute",t.style.opacity="0.01",t.style.zIndex="-9999",t.style.left="-9999px",t.style.width="1px",t.style.height="1px",pt={svg:t}):{}}().svg;if(!n)return function(t){return null};var r=document.createElementNS(n.namespaceURI,"path");r.setAttributeNS(null,"d",t),r.setAttributeNS(null,"fill","none"),r.setAttributeNS(null,"stroke","none"),n.appendChild(r);var i=r.getTotalLength();return function(t){var n=r.getPointAtLength(i*t);return{x:n.x,y:n.y}}}function bt(t){return dt[t]?dt[t]:dt[t]=mt(t)}function wt(t,n,e,r){if(!t||!r)return!1;var i=["M",t.x,t.y];if(n&&e&&(i.push("C"),i.push(n.x),i.push(n.y),i.push(e.x),i.push(e.y)),n?!e:e){var u=n||e;i.push("Q"),i.push(u.x),i.push(u.y)}return n||e||i.push("L"),i.push(r.x),i.push(r.y),i.join(" ")}function xt(t,n,e,r){var i=arguments.length>4&&void 0!==arguments[4]?arguments[4]:1,u=wt(t,n,e,r),o=bt(u);try{return o(i)}catch(t){return null}}function At(t,n,e){return t+(n-t)*e}function kt(t,n,e){var r=arguments.length>3&&void 0!==arguments[3]&&arguments[3],i={x:At(t.x,n.x,e),y:At(t.y,n.y,e)};return r&&(i.a=_t(t,n)),i}function _t(t,n){return Math.atan2(n.y-t.y,n.x-t.x)}function St(t,n,e,r){var i=1-r;return i*i*t+2*i*r*n+r*r*e}function Ot(t,n,e,r){return 2*(1-r)*(n-t)+2*r*(e-n)}function jt(t,n,e,r){var i=arguments.length>4&&void 0!==arguments[4]&&arguments[4],u=xt(t,n,null,e,r);return u||(u={x:St(t.x,n.x,e.x,r),y:St(t.y,n.y,e.y,r)}),i&&(u.a=Mt(t,n,e,r)),u}function Mt(t,n,e,r){return Math.atan2(Ot(t.y,n.y,e.y,r),Ot(t.x,n.x,e.x,r))}function Pt(t,n,e,r,i){var u=i*i;return i*u*(r-t+3*(n-e))+3*u*(t+e-2*n)+3*i*(n-t)+t}function Et(t,n,e,r,i){var u=1-i;return 3*(u*u*(n-t)+2*u*i*(e-n)+i*i*(r-e))}function It(t,n,e,r,i){var u=arguments.length>5&&void 0!==arguments[5]&&arguments[5],o=xt(t,n,e,r,i);return o||(o={x:Pt(t.x,n.x,e.x,r.x,i),y:Pt(t.y,n.y,e.y,r.y,i)}),u&&(o.a=Rt(t,n,e,r,i)),o}function Rt(t,n,e,r,i){return Math.atan2(Et(t.y,n.y,e.y,r.y,i),Et(t.x,n.x,e.x,r.x,i))}function Ft(t,n,e){var r=arguments.length>3&&void 0!==arguments[3]&&arguments[3];if(Tt(n)){if(qt(e))return jt(n,e.start,e,t,r)}else if(Tt(e)){if(Bt(n))return jt(n,n.end,e,t,r)}else{if(Bt(n))return qt(e)?It(n,n.end,e.start,e,t,r):jt(n,n.end,e,t,r);if(qt(e))return jt(n,e.start,e,t,r)}return kt(n,e,t,r)}function Nt(t,n,e){var r=Ft(t,n,e,!0);return r.a=function(t){return arguments.length>1&&void 0!==arguments[1]&&arguments[1]?t+Math.PI:t}(r.a)/m,r}function Tt(t){return!t.type||"corner"===t.type}function qt(t){return null!=t.start&&!Tt(t)}function Bt(t){return null!=t.end&&!Tt(t)}var Lt=new N;var Ct={f:ft,i:q},Dt={f:ft,i:L};function zt(t,n,e){return t.map((function(t){return function(t,n,e){var r=t.v;if(!r||"g"!==r.t||r.s||!r.v||!r.r)return t;var i=e.getElementById(r.r),u=i&&i.querySelectorAll("stop")||[];return r.s=r.v.map((function(t,n){var e=u[n]&&u[n].getAttribute("offset");return{c:t,o:e=d(parseInt(e)/100)}})),delete r.v,t}(t,0,e)}))}var Vt={gt:"gradientTransform",c:{x:"cx",y:"cy"},rd:"r",f:{x:"x1",y:"y1"},to:{x:"x2",y:"y2"}};function Gt(t,n,r,i,u,o,a,l){return zt(t,0,l),n=function(t,n,e){for(var r,i,u,o=t.length-1,a={},l=0;l<=o;l++)(r=t[l]).e&&(r.e=n(r.e)),r.v&&"g"===(i=r.v).t&&i.r&&(u=e.getElementById(i.r))&&(a[i.r]={e:u,s:u.querySelectorAll("stop")});return a}(t,i,l),function(i){var u=r(i,t,Yt);if(!u)return"none";if("c"===u.t)return ht(u.v);if("g"===u.t){if(!n[u.r])return vt(u.r);var o=n[u.r];return function(t,n){for(var e=t.s,r=e.length;r<n.length;r++){var i=e[e.length-1].cloneNode();i.id=Qt(i.id),t.e.appendChild(i),e=t.s=t.e.querySelectorAll("stop")}for(var u=0,o=e.length,a=n.length-1;u<o;u++)e[u].setAttribute("stop-color",ht(n[Math.min(u,a)].c)),e[u].setAttribute("offset",n[Math.min(u,a)].o)}(o,u.s),Object.keys(Vt).forEach((function(t){if(void 0!==u[t])if("object"!==e(Vt[t])){var n,r="gt"===t?(n=u[t],Array.isArray(n)?"matrix("+n.join(" ")+")":""):u[t],i=Vt[t];o.e.setAttribute(i,r)}else Object.keys(Vt[t]).forEach((function(n){if(void 0!==u[t][n]){var e=u[t][n],r=Vt[t][n];o.e.setAttribute(r,e)}}))})),vt(u.r)}return"none"}}function Yt(t,e,r){if(0===t)return e;if(1===t)return r;if(e&&r){var i=e.t;if(i===r.t)switch(e.t){case"c":return{t:i,v:z(t,e.v,r.v)};case"g":if(e.r===r.r){var u={t:i,s:$t(t,e.s,r.s),r:e.r};return e.gt&&r.gt&&(u.gt=function(t,n,e){var r=n.length;if(r!==e.length)return T(t,n,e);for(var i=new Array(r),u=0;u<r;u++)i[u]=q(t,n[u],e[u]);return i}(t,e.gt,r.gt)),e.c?(u.c=C(t,e.c,r.c),u.rd=B(t,e.rd,r.rd)):e.f&&(u.f=C(t,e.f,r.f),u.to=C(t,e.to,r.to)),u}}if("c"===e.t&&"g"===r.t||"c"===r.t&&"g"===e.t){var o="c"===e.t?e:r,a="g"===e.t?n({},e):n({},r),l=a.s.map((function(t){return{c:o.v,o:t.o}}));return a.s="c"===e.t?$t(t,l,a.s):$t(t,a.s,l),a}}return T(t,e,r)}function $t(t,n,e){if(n.length===e.length)return n.map((function(n,r){return Ut(t,n,e[r])}));for(var r=Math.max(n.length,e.length),i=[],u=0;u<r;u++){var o=Ut(t,n[Math.min(u,n.length-1)],e[Math.min(u,e.length-1)]);i.push(o)}return i}function Ut(t,n,e){return{o:L(t,n.o,e.o||0),c:z(t,n.c,e.c||{})}}function Qt(t){return t.replace(/-fill-([0-9]+)$/,(function(t,n){return"-fill-"+(+n+1)}))}var Ht={fill:Gt,"fill-opacity":Dt,stroke:Gt,"stroke-opacity":Dt,"stroke-width":Ct,"stroke-dashoffset":{f:ft,i:q},"stroke-dasharray":{f:function(t){var n=arguments.length>1&&void 0!==arguments[1]?arguments[1]:" ";return t&&t.length>0&&(t=t.map((function(t){return d(t,4)}))),ct(t,n)},i:function(t,n,e){var r,i,u,o=n.length,a=e.length;if(o!==a)if(0===o)n=V(o=a,0);else if(0===a)a=o,e=V(o,0);else{var l=(u=(r=o)*(i=a)/function(t,n){for(var e;n;)e=n,n=t%n,t=e;return t||1}(r,i))<0?-u:u;n=G(n,Math.floor(l/o)),e=G(e,Math.floor(l/a)),o=a=l}for(var s=[],f=0;f<o;f++)s.push(d(B(t,n[f],e[f])));return s}},opacity:Dt,transform:function(t,n,r,i){if(!(t=function(t,n){if(!t||"object"!==e(t))return null;var r=!1;for(var i in t)t.hasOwnProperty(i)&&(t[i]&&t[i].length?(t[i].forEach((function(t){t.e&&(t.e=n(t.e))})),r=!0):delete t[i]);return r?t:null}(t,i)))return null;var u=function(e,i,u){var o=arguments.length>3&&void 0!==arguments[3]?arguments[3]:null;return t[e]?r(i,t[e],u):n&&n[e]?n[e]:o};return n&&n.a&&t.o?function(n){var e=r(n,t.o,Nt);return Lt.recomposeSelf(e,u("r",n,q,0)+e.a,u("k",n,C),u("s",n,C),u("t",n,C)).toString()}:function(t){return Lt.recomposeSelf(u("o",t,Ft,null),u("r",t,q,0),u("k",t,C),u("s",t,C),u("t",t,C)).toString()}},r:Ct,"#size":gt,"#radius":yt,_:function(t,n){if(Array.isArray(t))for(var e=0;e<t.length;e++)this[t[e]]=n;else this[t]=n}},Jt=function(t){!function(t,n){if("function"!=typeof n&&null!==n)throw new TypeError("Super expression must either be null or a function");t.prototype=Object.create(n&&n.prototype,{constructor:{value:t,writable:!0,configurable:!0}}),n&&l(t,n)}(o,t);var n,e,i=(n=o,e=s(),function(){var t,r=a(n);if(e){var i=a(this).constructor;t=Reflect.construct(r,arguments,i)}else t=r.apply(this,arguments);return c(this,t)});function o(){return r(this,o),i.apply(this,arguments)}return u(o,null,[{key:"build",value:function(t){var n=h(a(o),"build",this).call(this,t,Ht);if(!n)return null;n.el,n.options,function(t,n,e){t.play()}(n.player)}}]),o}(st);return Jt.init(),Jt}));
(function(s,i,o,w,a,b){w[o]=w[o]||{};w[o][s]=w[o][s]||[];w[o][s].push(i);})('5c7f360c',{"root":"eAemrPiklyb1","version":"2022-05-04","animations":[{"elements":{"eAemrPiklyb9":{"transform":{"data":{"s":{"x":0.8,"y":0.8},"t":{"x":-81.887497,"y":-289.710495}},"keys":{"o":[{"t":0,"v":{"x":81.887497,"y":289.710495,"type":"corner"}},{"t":400,"v":{"x":106.37948,"y":306.063955,"type":"corner"}},{"t":1000,"v":{"x":137.002851,"y":309.716771,"type":"corner"}},{"t":1800,"v":{"x":110.001344,"y":297.270995,"type":"corner"}}]}}},"eAemrPiklyb10":{"transform":{"data":{"t":{"x":-518.138489,"y":-139.677998}},"keys":{"o":[{"t":0,"v":{"x":518.138489,"y":139.677998,"type":"corner"}},{"t":500,"v":{"x":527.007045,"y":108.820998,"type":"corner"}},{"t":740,"v":{"x":533.752846,"y":116.339238,"type":"corner"}},{"t":1000,"v":{"x":541.060798,"y":124.483998,"type":"corner"}},{"t":1300,"v":{"x":517.451489,"y":134.142998,"type":"corner"}},{"t":1800,"v":{"x":538.615489,"y":157.201776,"type":"corner"}}]}}},"eAemrPiklyb11":{"transform":{"data":{"o":{"x":137.002853,"y":191.316498,"type":"corner"},"t":{"x":-137.002853,"y":-191.316498}},"keys":{"r":[{"t":0,"v":0},{"t":100,"v":10},{"t":200,"v":20},{"t":300,"v":30},{"t":400,"v":40},{"t":500,"v":50},{"t":600,"v":60},{"t":700,"v":70},{"t":800,"v":80},{"t":900,"v":90},{"t":1000,"v":100},{"t":1100,"v":110},{"t":1200,"v":120},{"t":1300,"v":130},{"t":1400,"v":140},{"t":1500,"v":150},{"t":1600,"v":160},{"t":1700,"v":170},{"t":1800,"v":180}]}}},"eAemrPiklyb12":{"transform":{"data":{"o":{"x":559.105988,"y":291.628006,"type":"corner"},"t":{"x":-559.105988,"y":-291.628006}},"keys":{"r":[{"t":0,"v":10},{"t":400,"v":30},{"t":900,"v":60},{"t":1400,"v":90},{"t":1800,"v":120}]}}},"eAemrPiklyb13":{"transform":{"data":{"o":{"x":196.063499,"y":150.041504,"type":"corner"},"t":{"x":-196.063499,"y":-150.041504}},"keys":{"r":[{"t":0,"v":0},{"t":100,"v":10},{"t":200,"v":-10},{"t":300,"v":-20},{"t":400,"v":-30},{"t":500,"v":-40},{"t":600,"v":-50},{"t":700,"v":-60},{"t":800,"v":-70},{"t":900,"v":-80},{"t":1000,"v":-90},{"t":1100,"v":-100},{"t":1200,"v":-110},{"t":1300,"v":-120},{"t":1400,"v":-130},{"t":1500,"v":-140},{"t":1600,"v":-150},{"t":1700,"v":-160},{"t":1800,"v":-170}]}}},"eAemrPiklyb25":{"transform":{"data":{"o":{"x":299.0405,"y":294.8925,"type":"corner"},"t":{"x":-305.991508,"y":-296.442001}},"keys":{"r":[{"t":0,"v":10},{"t":400,"v":20},{"t":700,"v":30},{"t":1100,"v":20},{"t":1500,"v":10},{"t":1800,"v":0}]}}},"eAemrPiklyb29":{"transform":{"data":{"o":{"x":81.893112,"y":396.703949,"type":"corner"},"t":{"x":-81.893112,"y":-396.703949}},"keys":{"s":[{"t":0,"v":{"x":1,"y":1}},{"t":500,"v":{"x":0.718589,"y":0.718588}},{"t":1000,"v":{"x":0.585505,"y":0.585505}},{"t":1500,"v":{"x":0.915378,"y":0.915378}},{"t":1800,"v":{"x":1.030532,"y":1.030532}}]}}}},"s":"MHDA1ZGI2NWQ5ZmIwTWYFkOWNhZmE0YWFhOTVCkNzU2Yzc0NmI2YjY3PNWQ5ZkNhNGFkYTBYOGWVhZmE0RWFhYTk1ZDWc1NmM2NzVkSmE0YWZOhMFFhZDljYWZhNGFhNYTlhZTVkNzU2Ykg2NQzVkYTFhNGE3YTc1ZDUc1NmM2NzVkOWNhN2FYmYTBhZE1hOTljYWZhDMDVkVTc1YTE5Y0phNX2FlYTA2NzVkRFJhZWYFiYTBhMDlmNWQ3NTZWjNjdONWRhMWFiYWU1YZDc1NmM2YjZiYjg/"}],"options":"MNDAxMDg4MmZJODA4MTAZlTzdmODEyZjQ3MmYH3OTdjNmU3MTJmOGE/H"},'__SVGATOR_PLAYER__',window)
]]></script>
</svg>
