<svg width="16" height="16" viewBox="0 0 16 16" fill="none" xmlns="http://www.w3.org/2000/svg">
<path d="M13.4992 8C13.4988 7.18956 13.3193 6.38922 12.9735 5.65624C12.6278 4.92325 12.1243 4.27573 11.4992 3.76V1.5C11.4992 1.23478 11.3938 0.98043 11.2063 0.792893C11.0187 0.605357 10.7644 0.5 10.4992 0.5H5.49917C5.23396 0.5 4.9796 0.605357 4.79207 0.792893C4.60453 0.98043 4.49917 1.23478 4.49917 1.5V3.76C3.87107 4.27594 3.36514 4.92468 3.01777 5.65956C2.6704 6.39443 2.49023 7.19716 2.49023 8.01C2.49023 8.82284 2.6704 9.62557 3.01777 10.3604C3.36514 11.0953 3.87107 11.7441 4.49917 12.26V14.5C4.49917 14.7652 4.60453 15.0196 4.79207 15.2071C4.9796 15.3946 5.23396 15.5 5.49917 15.5H10.4992C10.7644 15.5 11.0187 15.3946 11.2063 15.2071C11.3938 15.0196 11.4992 14.7652 11.4992 14.5V12.24C12.1243 11.7243 12.6278 11.0767 12.9735 10.3438C13.3193 9.61077 13.4988 8.81044 13.4992 8ZM5.49917 1.5H10.4992V3.105C9.72575 2.70758 8.86873 2.50027 7.99917 2.50027C7.12962 2.50027 6.2726 2.70758 5.49917 3.105V1.5ZM3.49917 8C3.49917 7.10998 3.76309 6.23995 4.25756 5.49993C4.75203 4.75991 5.45483 4.18314 6.2771 3.84254C7.09937 3.50195 8.00417 3.41283 8.87708 3.58647C9.75 3.7601 10.5518 4.18868 11.1812 4.81802C11.8105 5.44736 12.2391 6.24918 12.4127 7.12209C12.5863 7.99501 12.4972 8.89981 12.1566 9.72208C11.816 10.5443 11.2393 11.2471 10.4992 11.7416C9.75922 12.2361 8.88919 12.5 7.99917 12.5C6.8057 12.5 5.66111 12.0259 4.81719 11.182C3.97328 10.3381 3.49917 9.19347 3.49917 8ZM10.4992 14.5H5.49917V12.895C6.2726 13.2924 7.12962 13.4997 7.99917 13.4997C8.86873 13.4997 9.72575 13.2924 10.4992 12.895V14.5Z" fill="#3D565F"/>
<path d="M9.06001 9.765C9.15369 9.85813 9.28042 9.9104 9.41251 9.9104C9.5446 9.9104 9.67133 9.85813 9.76501 9.765C9.85813 9.67132 9.9104 9.54459 9.9104 9.4125C9.9104 9.28041 9.85813 9.15368 9.76501 9.06L8.50001 7.795V6C8.50001 5.86739 8.44733 5.74021 8.35356 5.64645C8.25979 5.55268 8.13262 5.5 8.00001 5.5C7.8674 5.5 7.74022 5.55268 7.64646 5.64645C7.55269 5.74021 7.50001 5.86739 7.50001 6V8C7.49963 8.0658 7.51224 8.13103 7.53712 8.19195C7.56201 8.25287 7.59867 8.30828 7.64501 8.355L9.06001 9.765Z" fill="#3D565F"/>
</svg>
