<svg width="16" height="16" viewBox="0 0 16 16" fill="none" xmlns="http://www.w3.org/2000/svg">
<path d="M13.5 6C13.5016 5.10183 13.2832 4.21694 12.864 3.42264C12.4447 2.62834 11.8373 1.9488 11.0948 1.44342C10.3523 0.938026 9.49735 0.622163 8.60463 0.523426C7.7119 0.424688 6.80858 0.546082 5.9736 0.876999C5.13862 1.20792 4.39738 1.73829 3.81466 2.42176C3.23195 3.10524 2.82548 3.92103 2.63078 4.79784C2.43608 5.67465 2.45908 6.5858 2.69776 7.45167C2.93644 8.31754 3.38354 9.11178 3.99999 9.765V15C4.00006 15.0825 4.02055 15.1638 4.05964 15.2364C4.09873 15.3091 4.15521 15.371 4.22403 15.4165C4.29285 15.4621 4.37187 15.4899 4.45405 15.4975C4.53622 15.5051 4.619 15.4922 4.69499 15.46L7.99999 14.045L11.305 15.46C11.3667 15.4863 11.433 15.4999 11.5 15.5C11.598 15.4992 11.6936 15.4697 11.775 15.415C11.8438 15.3697 11.9003 15.3081 11.9396 15.2357C11.9788 15.1633 11.9996 15.0824 12 15V9.765C12.961 8.74669 13.4975 7.40018 13.5 6ZM7.99999 1.5C8.89001 1.5 9.76004 1.76392 10.5001 2.25839C11.2401 2.75285 11.8169 3.45566 12.1574 4.27792C12.498 5.10019 12.5872 6.00499 12.4135 6.8779C12.2399 7.75082 11.8113 8.55264 11.182 9.18198C10.5526 9.81131 9.75081 10.2399 8.8779 10.4135C8.00498 10.5872 7.10018 10.4981 6.27792 10.1575C5.45565 9.81686 4.75284 9.24008 4.25838 8.50006C3.76391 7.76004 3.49999 6.89001 3.49999 6C3.49999 4.80652 3.9741 3.66193 4.81801 2.81802C5.66192 1.9741 6.80652 1.5 7.99999 1.5ZM8.19499 13.04C8.1333 13.0139 8.06699 13.0004 7.99999 13.0004C7.933 13.0004 7.86668 13.0139 7.80499 13.04L4.99999 14.24V10.605C5.8927 11.186 6.93489 11.4952 7.99999 11.4952C9.06509 11.4952 10.1073 11.186 11 10.605V14.24L8.19499 13.04Z" fill="#3D565F"/>
<path d="M5.0006 6.415L5.6606 6.915C5.69255 6.94181 5.7158 6.97753 5.72738 7.0176C5.73895 7.05767 5.73833 7.10028 5.7256 7.14L5.4756 7.945C5.39634 8.1878 5.3973 8.44966 5.47833 8.69187C5.55937 8.93408 5.71619 9.14379 5.9256 9.29C6.11728 9.42975 6.34838 9.50504 6.5856 9.505C6.83487 9.50284 7.07682 9.42044 7.2756 9.27L7.9356 8.77C7.96156 8.75053 7.99314 8.74 8.0256 8.74C8.05805 8.74 8.08963 8.75053 8.1156 8.77L8.7756 9.27C8.97033 9.41605 9.20718 9.495 9.4506 9.495C9.69402 9.495 9.93087 9.41605 10.1256 9.27C10.335 9.12379 10.4918 8.91408 10.5729 8.67186C10.6539 8.42965 10.6549 8.1678 10.5756 7.925L10.3256 7.12C10.3129 7.08028 10.3122 7.03767 10.3238 6.9976C10.3354 6.95753 10.3586 6.92181 10.3906 6.895L11.0506 6.395C11.2546 6.24364 11.4046 6.03073 11.4784 5.78767C11.5522 5.5446 11.546 5.28425 11.4606 5.045C11.3863 4.81149 11.2398 4.60764 11.042 4.46293C10.8443 4.31822 10.6056 4.24015 10.3606 4.24H9.5006C9.46424 4.23839 9.4293 4.22548 9.40062 4.20308C9.37194 4.18067 9.35096 4.14989 9.3406 4.115L9.0906 3.31C9.02132 3.06912 8.87556 2.85732 8.67532 2.70655C8.47509 2.55579 8.23124 2.47426 7.9806 2.47426C7.72995 2.47426 7.48611 2.55579 7.28587 2.70655C7.08564 2.85732 6.93988 3.06912 6.8706 3.31L6.6206 4.115C6.61024 4.14989 6.58926 4.18067 6.56058 4.20308C6.5319 4.22548 6.49695 4.23839 6.4606 4.24H5.6656C5.42056 4.24015 5.18193 4.31822 4.98419 4.46293C4.78645 4.60764 4.63985 4.81149 4.5656 5.045C4.47796 5.28947 4.47307 5.55596 4.55166 5.80349C4.63025 6.05101 4.78799 6.26586 5.0006 6.415ZM5.5006 5.385C5.50748 5.35012 5.52613 5.31867 5.55344 5.29591C5.58075 5.27316 5.61505 5.26048 5.6506 5.26H6.5006C6.74967 5.25988 6.99209 5.17959 7.19199 5.03101C7.3919 4.88244 7.53867 4.67346 7.6106 4.435L7.8656 3.625C7.87441 3.59058 7.89443 3.56008 7.92249 3.5383C7.95056 3.51651 7.98507 3.50469 8.0206 3.50469C8.05613 3.50469 8.09064 3.51651 8.11871 3.5383C8.14677 3.56008 8.16679 3.59058 8.1756 3.625L8.4306 4.435C8.50043 4.66705 8.64118 4.8714 8.83309 5.01936C9.02499 5.16733 9.25842 5.25148 9.5006 5.26H10.3156C10.3511 5.26048 10.3854 5.27316 10.4128 5.29591C10.4401 5.31867 10.4587 5.35012 10.4656 5.385C10.4823 5.42459 10.4855 5.46861 10.4747 5.5102C10.4638 5.55179 10.4396 5.58864 10.4056 5.615L9.7456 6.115C9.54832 6.2651 9.40213 6.4724 9.32697 6.70862C9.25181 6.94484 9.25133 7.1985 9.3256 7.435L9.5806 8.24C9.59581 8.28118 9.59669 8.3263 9.58308 8.36804C9.56947 8.40978 9.54217 8.4457 9.5056 8.47C9.48118 8.49078 9.45016 8.5022 9.4181 8.5022C9.38603 8.5022 9.35502 8.49078 9.3306 8.47L8.6706 7.97C8.47324 7.81674 8.23048 7.73355 7.9806 7.73355C7.73072 7.73355 7.48796 7.81674 7.2906 7.97L6.6306 8.47C6.60618 8.49078 6.57516 8.5022 6.5431 8.5022C6.51103 8.5022 6.48002 8.49078 6.4556 8.47C6.41903 8.4457 6.39173 8.40978 6.37812 8.36804C6.36451 8.3263 6.36538 8.28118 6.3806 8.24L6.6356 7.435C6.70987 7.1985 6.70939 6.94484 6.63423 6.70862C6.55907 6.4724 6.41288 6.2651 6.2156 6.115L5.5556 5.615C5.5225 5.58798 5.49919 5.55084 5.48925 5.50929C5.47932 5.46774 5.4833 5.42407 5.5006 5.385Z" fill="#3D565F"/>
</svg>
