<svg width="16" height="16" viewBox="0 0 16 16" fill="none" xmlns="http://www.w3.org/2000/svg">
<path d="M15 12.5H11C11.5186 12.1051 11.9534 11.6107 12.2787 11.0458C12.6041 10.4809 12.8136 9.8568 12.895 9.21H13.02C13.6435 9.20003 14.2407 8.95743 14.6945 8.5298C15.1483 8.10217 15.426 7.52038 15.4729 6.89861C15.5199 6.27683 15.3328 5.65994 14.9484 5.169C14.5639 4.67806 14.0099 4.3485 13.395 4.245L13.465 3.59C13.4786 3.45096 13.463 3.31061 13.4191 3.17798C13.3752 3.04536 13.3039 2.92341 13.21 2.82C13.1134 2.71569 12.9956 2.6332 12.8645 2.57801C12.7335 2.52283 12.5921 2.49624 12.45 2.5H3.55C3.41046 2.50033 3.27253 2.52986 3.14508 2.5867C3.01763 2.64353 2.90349 2.72641 2.81 2.83C2.71607 2.93341 2.64484 3.05536 2.60092 3.18798C2.557 3.32061 2.54136 3.46096 2.555 3.6L3.105 9.07C3.16698 9.74157 3.36735 10.393 3.69349 10.9833C4.01963 11.5737 4.46447 12.0901 5 12.5H1C0.867392 12.5 0.740215 12.5527 0.646447 12.6464C0.552678 12.7402 0.5 12.8674 0.5 13C0.5 13.1326 0.552678 13.2598 0.646447 13.3536C0.740215 13.4473 0.867392 13.5 1 13.5H15C15.1326 13.5 15.2598 13.4473 15.3536 13.3536C15.4473 13.2598 15.5 13.1326 15.5 13C15.5 12.8674 15.4473 12.7402 15.3536 12.6464C15.2598 12.5527 15.1326 12.5 15 12.5ZM14.5 6.72C14.5 7.11783 14.342 7.49936 14.0607 7.78066C13.7794 8.06196 13.3978 8.22 13 8.22L13.3 5.25C13.6388 5.31916 13.9433 5.50325 14.162 5.77113C14.3807 6.039 14.5001 6.3742 14.5 6.72ZM8 5.54L8.75 5.84V7.5H7.25V5.84L8 5.54ZM4.1 8.97L3.55 3.5H7.5V4.66L6.565 5.035C6.47197 5.07205 6.3922 5.13618 6.33604 5.21909C6.27988 5.302 6.2499 5.39986 6.25 5.5V8C6.25 8.13261 6.30268 8.25979 6.39645 8.35355C6.49021 8.44732 6.61739 8.5 6.75 8.5H9.25C9.38261 8.5 9.50979 8.44732 9.60355 8.35355C9.69732 8.25979 9.75 8.13261 9.75 8V5.5C9.7501 5.39986 9.72012 5.302 9.66396 5.21909C9.6078 5.13618 9.52803 5.07205 9.435 5.035L8.5 4.66V3.5H12.45L11.9 8.97C11.802 9.93623 11.3489 10.8317 10.6283 11.4828C9.90778 12.134 8.97118 12.4945 8 12.4945C7.02882 12.4945 6.09222 12.134 5.37168 11.4828C4.65114 10.8317 4.19798 9.93623 4.1 8.97Z" fill="#3D565F"/>
</svg>
