<svg width="16" height="16" viewBox="0 0 16 16" fill="none" xmlns="http://www.w3.org/2000/svg">
<g clip-path="url(#clip0_137_15935)">
<path d="M8 13.5C7.93023 13.4998 7.86126 13.4851 7.79754 13.4567C7.73382 13.4282 7.67675 13.3868 7.63 13.335C7.155 12.805 3 8.1 3 5.5C3 4.17392 3.52678 2.90215 4.46447 1.96447C5.40215 1.02678 6.67392 0.5 8 0.5C9.32608 0.5 10.5979 1.02678 11.5355 1.96447C12.4732 2.90215 13 4.17392 13 5.5C13 8.1 8.845 12.805 8.37 13.335C8.32325 13.3868 8.26618 13.4282 8.20246 13.4567C8.13874 13.4851 8.06977 13.4998 8 13.5ZM8 1.5C6.93913 1.5 5.92172 1.92143 5.17157 2.67157C4.42143 3.42172 4 4.43913 4 5.5C4 7.21 6.615 10.62 8 12.24C9.385 10.62 12 7.21 12 5.5C12 4.43913 11.5786 3.42172 10.8284 2.67157C10.0783 1.92143 9.06087 1.5 8 1.5Z" fill="#3D565F"/>
<path d="M15.0006 15.5H1.00058C0.918683 15.5001 0.838005 15.4801 0.765643 15.4418C0.69328 15.4034 0.631449 15.3479 0.585584 15.28C0.539978 15.2124 0.51158 15.1348 0.502866 15.0537C0.494151 14.9727 0.505383 14.8907 0.535584 14.815L2.53558 9.815C2.57264 9.72197 2.63677 9.6422 2.71968 9.58604C2.80258 9.52988 2.90044 9.4999 3.00058 9.5H5.62058C5.70075 9.49957 5.77985 9.51842 5.85121 9.55497C5.92256 9.59152 5.98409 9.64469 6.03058 9.71C6.78058 10.77 7.53058 11.71 8.00058 12.21C8.44558 11.71 9.22058 10.745 9.97058 9.71C10.0171 9.64469 10.0786 9.59152 10.15 9.55497C10.2213 9.51842 10.3004 9.49957 10.3806 9.5H13.0006C13.1007 9.4999 13.1986 9.52988 13.2815 9.58604C13.3644 9.6422 13.4285 9.72197 13.4656 9.815L15.4656 14.815C15.4958 14.8907 15.507 14.9727 15.4983 15.0537C15.4896 15.1348 15.4612 15.2124 15.4156 15.28C15.3697 15.3479 15.3079 15.4034 15.2355 15.4418C15.1632 15.4801 15.0825 15.5001 15.0006 15.5ZM1.74058 14.5H14.2406L12.6406 10.5H10.6356C9.51558 12.055 8.42058 13.28 8.37058 13.335C8.32372 13.3866 8.2666 13.4278 8.20288 13.4559C8.13916 13.4841 8.07026 13.4987 8.00058 13.4987C7.93091 13.4987 7.862 13.4841 7.79829 13.4559C7.73457 13.4278 7.67745 13.3866 7.63058 13.335C7.58058 13.28 6.48558 12.055 5.36558 10.5H3.34058L1.74058 14.5Z" fill="#3D565F"/>
<path d="M8 8C7.50555 8 7.0222 7.85338 6.61108 7.57867C6.19995 7.30397 5.87952 6.91352 5.6903 6.45671C5.50108 5.99989 5.45157 5.49723 5.54804 5.01228C5.6445 4.52732 5.8826 4.08187 6.23223 3.73223C6.58187 3.3826 7.02732 3.1445 7.51228 3.04804C7.99723 2.95157 8.4999 3.00108 8.95671 3.1903C9.41353 3.37952 9.80397 3.69995 10.0787 4.11108C10.3534 4.5222 10.5 5.00555 10.5 5.5C10.5 6.16304 10.2366 6.79893 9.76777 7.26777C9.29893 7.73661 8.66304 8 8 8ZM8 4C7.70333 4 7.41332 4.08797 7.16665 4.2528C6.91997 4.41762 6.72771 4.65189 6.61418 4.92598C6.50065 5.20007 6.47095 5.50167 6.52882 5.79264C6.5867 6.08361 6.72956 6.35088 6.93934 6.56066C7.14912 6.77044 7.41639 6.9133 7.70737 6.97118C7.99834 7.02906 8.29994 6.99935 8.57403 6.88582C8.84812 6.77229 9.08238 6.58003 9.24721 6.33336C9.41203 6.08668 9.5 5.79667 9.5 5.5C9.5 5.10218 9.34197 4.72065 9.06066 4.43934C8.77936 4.15804 8.39783 4 8 4Z" fill="#3D565F"/>
</g>
<defs>
<clipPath id="clip0_137_15935">
<rect width="16" height="16" fill="white"/>
</clipPath>
</defs>
</svg>
